<svg width="16" height="17" viewBox="0 0 16 17" fill="none" xmlns="http://www.w3.org/2000/svg">
<path fill-rule="evenodd" clip-rule="evenodd" d="M8 16.5C12.4183 16.5 16 12.9183 16 8.5C16 4.08172 12.4183 0.5 8 0.5C3.58172 0.5 0 4.08172 0 8.5C0 12.9183 3.58172 16.5 8 16.5ZM11.7828 5.93439C11.4704 5.62197 10.9638 5.62197 10.6514 5.93439L6.4171 10.1687L4.96578 8.71739C4.65336 8.40497 4.14683 8.40497 3.83441 8.71739C3.52199 9.02981 3.52199 9.53635 3.83441 9.84876L5.85141 11.8658C6.16383 12.1782 6.67036 12.1782 6.98278 11.8658L11.7828 7.06576C12.0952 6.75334 12.0952 6.24681 11.7828 5.93439Z" fill="white"/>
</svg>
