<svg width="16" height="16" viewBox="0 0 16 16" fill="none" xmlns="http://www.w3.org/2000/svg">
<path id="&#240;&#159;&#142;&#168; Icon Color" fill-rule="evenodd" clip-rule="evenodd" d="M16 8C16 12.4183 12.4183 16 8 16C3.58172 16 0 12.4183 0 8C0 3.58172 3.58172 0 8 0C12.4183 0 16 3.58172 16 8ZM9.83432 5.03412C10.1467 4.7217 10.6533 4.7217 10.9657 5.03412C11.2781 5.34654 11.2781 5.85307 10.9657 6.16549L9.13137 7.9998L10.9657 9.83412C11.2781 10.1465 11.2781 10.6531 10.9657 10.9655C10.6533 11.2779 10.1467 11.2779 9.83432 10.9655L8 9.13118L6.16569 10.9655C5.85327 11.2779 5.34673 11.2779 5.03431 10.9655C4.7219 10.6531 4.7219 10.1465 5.03431 9.83412L6.86863 7.9998L5.03431 6.16549C4.7219 5.85307 4.7219 5.34654 5.03431 5.03412C5.34673 4.7217 5.85327 4.7217 6.16569 5.03412L8 6.86843L9.83432 5.03412Z" fill="#E47160"/>
</svg>