<?xml version="1.0" encoding="UTF-8"?>
<svg width="138px" height="141px" viewBox="0 0 138 141" version="1.1" xmlns="http://www.w3.org/2000/svg" xmlns:xlink="http://www.w3.org/1999/xlink">
    <!-- Generator: Sketch 59.1 (86144) - https://sketch.com -->
    <title>Artboard</title>
    <desc>Created with Sketch.</desc>
    <g id="Artboard" stroke="none" stroke-width="1" fill="none" fill-rule="evenodd">
        <g id="Group-2" transform="translate(-31.000000, -1.000000)" stroke="#7C3AED">
            <g id="noun_Heart_827144" transform="translate(84.500000, 85.000000) rotate(-315.000000) translate(-84.500000, -85.000000) translate(21.000000, 29.000000)" fill="#7C3AED" fill-rule="nonzero" stroke-width="8">
                <g id="Group">
                    <path d="M33.5059208,0.544261818 C24.9241844,0.544261818 16.361931,3.88084364 9.82864545,10.4988073 C-3.23792287,23.73472 -3.22175924,45.1628218 9.82864545,58.4078545 L60.3851821,109.771491 C61.197614,110.593003 62.3011072,111.05475 63.4519435,111.05475 C64.6027797,111.05475 65.706273,110.593003 66.5187049,109.771491 C83.3958503,92.6757818 100.288293,75.5946182 117.165295,58.4987636 C130.231863,45.2629091 130.231863,23.78016 117.165295,10.5442618 C104.098871,-2.69163636 82.8325764,-2.69176727 69.7658639,10.5442618 L63.541998,16.9078982 L57.2280776,10.4988073 C50.6947935,3.88085818 42.0875128,0.544261818 33.5059208,0.544261818 L33.5059208,0.544261818 Z M33.5059208,9.18062545 C39.837881,9.18062545 46.2002924,11.6773818 51.0945549,16.6351709 L60.4752367,26.1351709 C61.2876686,26.9566831 62.3911618,27.4184301 63.541998,27.4184301 C64.6928343,27.4184301 65.7963275,26.9566831 66.6087594,26.1351709 L75.8993867,16.6806255 C85.6882003,6.76485818 101.243103,6.76504727 111.031772,16.6806255 C120.820586,26.5962036 120.820586,42.4014109 111.031772,52.3169891 C95.1739458,68.3803636 79.3097696,84.4808727 63.4519435,100.544291 L15.9621696,52.2715345 C6.17941591,42.3427345 6.17335455,26.5507345 15.9621696,16.6351709 C20.8564321,11.6773964 27.1738162,9.18062545 33.5059208,9.18062545 Z" id="Shape"></path>
                </g>
            </g>
            <path d="M120.00074,61.7723733 C104.167134,64.0768618 90.3362596,64.0768618 78.5081153,61.7723733 C62.9111058,58.7335932 47.4565534,49.3591261 53.2423438,34.5007396" id="Path-5" stroke-width="16"></path>
        </g>
    </g>
</svg>