<?xml version="1.0" encoding="UTF-8"?>
<svg width="20px" height="20px" viewBox="0 0 20 20" version="1.1" xmlns="http://www.w3.org/2000/svg" xmlns:xlink="http://www.w3.org/1999/xlink">
    <!-- Generator: Sketch 59.1 (86144) - https://sketch.com -->
    <title>noun_Patient_1198658</title>
    <desc>Created with Sketch.</desc>
    <g id="UX-pasos" stroke="none" stroke-width="1" fill="none" fill-rule="evenodd">
        <g id="Paso_1" transform="translate(-192.000000, -806.000000)" fill="#000000" fill-rule="nonzero">
            <g id="noun_Patient_1198658" transform="translate(192.000000, 806.000000)">
                <g id="Group">
                    <path d="M11.8,12.1 C12.7,11.2 13.2,10 13.2,8.7 C13.2,6.1 11.1,3.9 8.4,3.9 C5.7,3.9 3.8,6.1 3.8,8.7 C3.8,10 4.3,11.2 5.2,12.1 C2.1,13.2 0,15.9 0,19 L0,20 L17,20 L17,19 C17,15.9 14.9,13.2 11.8,12.1 Z M5.8,8.7 C5.8,7.2 7,5.9 8.6,5.9 C10.2,5.9 11.4,7.1 11.4,8.7 C11.4,10.3 10.2,11.5 8.6,11.5 C7,11.5 5.8,10.2 5.8,8.7 Z M2.1,18 C2.7,15.4 5.3,13.4 8.5,13.4 C11.7,13.4 14.3,15.4 14.9,18 L2.1,18 Z" id="Shape"></path>
                    <polygon id="Path" points="20 2 18 2 18 0 16 0 16 2 14 2 14 4 16 4 16 6 18 6 18 4 20 4"></polygon>
                </g>
            </g>
        </g>
    </g>
</svg>